<?xml version="1.0" standalone="no"?><!DOCTYPE svg PUBLIC "-//W3C//DTD SVG 1.1//EN" "http://www.w3.org/Graphics/SVG/1.1/DTD/svg11.dtd"><svg xmlns="http://www.w3.org/2000/svg" version="1.1" width="744.583" height="1428.25" xmlns:xlink="http://www.w3.org/1999/xlink" xlink="http://www.w3.org/1999/xlink" style="position:relative;overflow:hidden;" viewBox="339.583 0 744.583 1428.25"><defs/><g><g width="151" height="0" transform="scale(1,1) translate(416.167,50)"><g fill="#545454" stroke="#545454" stroke-opacity="1" transform="scale(1,1) translate(0,0)"><path fill="none" stroke-width="1" stroke-dasharray="none" d="M0,0 L0,0 M0,0 L0,0 M151,0 L151,0 M0,0 L0,0"/><g><g stroke-dasharray="none"><path d="M0,0L-10,0L-10,-10L0,-10z" stroke-width="0" fill="none"/></g></g></g></g><g width="150" height="75.167" transform="scale(1,1) translate(416.167,12.5)"><g transform="scale(1,1) translate(0,0)" stroke="#FBD585" fill="#FBD585" fill-opacity="1" stroke-opacity="1"><path d="M37,0 L28.675,0.949 L25.303,1.897 L22.769,2.846 L20.678,3.795 L18.875,4.744 L17.281,5.692 L15.85,6.641 L14.549,7.59 L13.358,8.538 L12.26,9.487 L11.244,10.436 L10.301,11.385 L9.422,12.333 L8.602,13.282 L7.836,14.231 L7.119,15.179 L6.449,16.128 L5.822,17.077 L5.236,18.026 L4.688,18.974 L4.177,19.923 L3.7,20.872 L3.257,21.821 L2.846,22.769 L2.466,23.718 L2.116,24.667 L1.795,25.615 L1.502,26.564 L1.237,27.513 L0.999,28.462 L0.787,29.41 L0.601,30.359 L0.44,31.308 L0.305,32.256 L0.195,33.205 L0.11,34.154 L0.049,35.103 L0.012,36.051 L0,37 L0,38.167 L0.012,39.115 L0.049,40.064 L0.11,41.013 L0.195,41.962 L0.305,42.91 L0.44,43.859 L0.601,44.808 L0.787,45.756 L0.999,46.705 L1.237,47.654 L1.502,48.603 L1.795,49.551 L2.116,50.5 L2.466,51.449 L2.846,52.397 L3.257,53.346 L3.7,54.295 L4.177,55.244 L4.688,56.192 L5.236,57.141 L5.822,58.09 L6.449,59.038 L7.119,59.987 L7.836,60.936 L8.602,61.885 L9.422,62.833 L10.301,63.782 L11.244,64.731 L12.26,65.679 L13.358,66.628 L14.549,67.577 L15.85,68.526 L17.281,69.474 L18.875,70.423 L20.678,71.372 L22.769,72.321 L25.303,73.269 L28.675,74.218 L37,75.167 L113,75.167 L121.325,74.218 L124.697,73.269 L127.231,72.321 L129.322,71.372 L131.125,70.423 L132.719,69.474 L134.15,68.526 L135.451,67.577 L136.642,66.628 L137.74,65.679 L138.756,64.731 L139.699,63.782 L140.578,62.833 L141.398,61.885 L142.164,60.936 L142.881,59.987 L143.551,59.038 L144.178,58.09 L144.764,57.141 L145.312,56.192 L145.823,55.244 L146.3,54.295 L146.743,53.346 L147.154,52.397 L147.534,51.449 L147.884,50.5 L148.205,49.551 L148.498,48.603 L148.763,47.654 L149.001,46.705 L149.213,45.756 L149.399,44.808 L149.56,43.859 L149.695,42.91 L149.805,41.962 L149.89,41.013 L149.951,40.064 L149.988,39.115 L150,38.167 L150,37 L149.988,36.051 L149.951,35.103 L149.89,34.154 L149.805,33.205 L149.695,32.256 L149.56,31.308 L149.399,30.359 L149.213,29.41 L149.001,28.462 L148.763,27.513 L148.498,26.564 L148.205,25.615 L147.884,24.667 L147.534,23.718 L147.154,22.769 L146.743,21.821 L146.3,20.872 L145.823,19.923 L145.312,18.974 L144.764,18.026 L144.178,17.077 L143.551,16.128 L142.881,15.179 L142.164,14.231 L141.398,13.282 L140.578,12.333 L139.699,11.385 L138.756,10.436 L137.74,9.487 L136.642,8.538 L135.451,7.59 L134.15,6.641 L132.719,5.692 L131.125,4.744 L129.322,3.795 L127.231,2.846 L124.697,1.897 L121.325,0.949 L113,0 L37,0 z" stroke-width="1" stroke-dasharray="none"/></g><g width="101.33333333333333" height="48.5" transform="scale(1,1) translate(24.333,13.333)"><text width="101.33333333333333" height="15.624999046325684" transform="scale(1,1) translate(0,16.437500476837158)" xml:space="preserve"><tspan xml:space="preserve" text-rendering="optimizeSpeed" font-size="13.88888888888889" font-weight="normal" font-style="normal" text-decoration="none" fill="#333333" opacity="1" x="36.005" text-anchor="start" y="12.5" textLength="29.323387145996094" style="font-family: Arial, Helvetica Neue, Helvetica, sans-serif;">Start</tspan></text></g></g><g width="158.333" height="54.167" transform="scale(1,1) translate(412.5,131.25)"><g transform="scale(1,1) translate(0,0)" stroke="#B3D7EE" fill="#B3D7EE" fill-opacity="1" stroke-opacity="1"><path d="M20,0 L158.333,0 L138.333,54.167 L0,54.167 L20,0 z" stroke-width="1" stroke-dasharray="none"/></g><g width="116.33333333333333" height="36.5" transform="scale(1,1) translate(21,8.833)"><text width="116.33333333333333" height="31.249998092651367" transform="scale(1,1) translate(0,2.6250009536743164)" xml:space="preserve"><tspan xml:space="preserve" text-rendering="optimizeSpeed" font-size="13.88888888888889" font-weight="normal" font-style="normal" text-decoration="none" fill="#333333" opacity="1" x="11.47" text-anchor="start" y="12.5" textLength="93.39415740966797" style="font-family: Arial, Helvetica Neue, Helvetica, sans-serif;">Enter vaues for</tspan><tspan xml:space="preserve" text-rendering="optimizeSpeed" font-size="13.88888888888889" font-weight="normal" font-style="normal" text-decoration="none" fill="#333333" opacity="1" x="35.4" text-anchor="start" y="28.125" textLength="45.534305572509766" style="font-family: Arial, Helvetica Neue, Helvetica, sans-serif;">a, b, c :</tspan></text></g></g><g width="150" height="54" transform="scale(1,1) translate(408.333,306.333)"><g stroke="#B3D7EE" stroke-opacity="1" stroke-width="1" stroke-dasharray="none" width="150" height="54" transform="scale(1,1) translate(0,0)" fill="#FF0000" fill-opacity="1"><rect width="150" height="54"/></g><g width="145" height="49" transform="scale(1,1) translate(2.5,2.5)"><text width="145" height="15.624999046325684" transform="scale(1,1) translate(0,16.687500476837158)" xml:space="preserve"><tspan xml:space="preserve" text-rendering="optimizeSpeed" font-size="13.88888888888889" font-weight="normal" font-style="normal" text-decoration="none" fill="#333333" opacity="1" x="2.853" text-anchor="start" y="12.5" textLength="139.2946014404297" style="font-family: Arial, Helvetica Neue, Helvetica, sans-serif;">disc = (b * b) - 4 * a * c</tspan></text></g><g fill="#9999FF" stroke="#9999FF" stroke-opacity="1" opacity="0" transform="scale(1,1) translate(0,0)"><path fill="none" stroke-width="1" stroke-dasharray="none" d="M0,0"/></g></g><g width="200" height="58.333" transform="scale(1,1) translate(383.333,395.833)"><g transform="scale(1,1) translate(0,0)" stroke="#B3D7EE" fill="#0070C0" fill-opacity="1" stroke-opacity="1"><path d="M100,0 L200,29.167 L100,58.333 L0,29.167 L100,0 z" stroke-width="1" stroke-dasharray="none"/></g><g width="99.5" height="28.666666666666664" transform="scale(1,1) translate(50.333,14.833)"><text width="99.5" height="15.624999046325684" transform="scale(1,1) translate(0,6.52083381017049)" xml:space="preserve"><tspan xml:space="preserve" text-rendering="optimizeSpeed" font-size="13.88888888888889" font-weight="normal" font-style="normal" text-decoration="none" fill="#333333" opacity="1" x="11.552" text-anchor="start" y="12.5" textLength="76.39675903320312" style="font-family: Arial, Helvetica Neue, Helvetica, sans-serif;">if (disc == 0)</tspan></text></g></g><g width="0" height="35.5" transform="scale(1,1) translate(483.333,360.333)"><g transform="scale(1,1) translate(0,0)" fill="#000000" stroke="#000000" stroke-opacity="1"><path d="M0,0 L0,35.5" fill="none" stroke-width="1" stroke-dasharray="none"/><g><g stroke-dasharray="none"><path d="M7,21.5L0,35.5L-7,21.5" stroke-width="0.5" fill="none"/></g></g></g></g><g width="68.333" height="0" transform="scale(1,1) translate(583.333,425)"><g transform="scale(1,1) translate(0,0)" fill="#000000" stroke="#000000" stroke-opacity="1"><path d="M0,0 L68.333,0" fill="none" stroke-width="1" stroke-dasharray="none"/><g><g stroke-dasharray="none"><path d="M54.333,-7L68.333,0L54.333,7" stroke-width="0.5" fill="none"/></g></g></g></g><g width="150" height="75" transform="scale(1,1) translate(641.667,387.5)"><g transform="scale(1,1) translate(0,0)" stroke="#B3D7EE" fill="#B3D7EE" fill-opacity="1" stroke-opacity="1"><path d="M20,0 L150,0 L130,75 L0,75 L20,0 z" stroke-width="1" stroke-dasharray="none"/></g><g width="110" height="52.666666666666664" transform="scale(1,1) translate(20,11.167)"><text width="110" height="31.249998092651367" transform="scale(1,1) translate(0,10.708334287007649)" xml:space="preserve"><tspan xml:space="preserve" text-rendering="optimizeSpeed" font-size="13.88888888888889" font-weight="normal" font-style="normal" text-decoration="none" fill="#333333" opacity="1" x="9.466" text-anchor="start" y="12.5" textLength="87.21083068847656" style="font-family: Arial, Helvetica Neue, Helvetica, sans-serif;">Roots are real</tspan><tspan xml:space="preserve" text-rendering="optimizeSpeed" font-size="13.88888888888889" font-weight="normal" font-style="normal" text-decoration="none" fill="#333333" opacity="1" x="24.5" text-anchor="start" y="28.125" textLength="60.99946594238281" style="font-family: Arial, Helvetica Neue, Helvetica, sans-serif;">and equal</tspan></text></g></g><g width="43.333" height="16.667" transform="scale(1,1) translate(595,391.667)"><g stroke="#545454" stroke-opacity="1" stroke-width="0" stroke-dasharray="none" width="43.333" height="16.667" transform="scale(1,1) translate(0,0)" fill="none"><rect width="43.333" height="16.667"/></g><g width="43.33333333333333" height="16.666666666666664" transform="scale(1,1) translate(0,0)"><text width="43.33333333333333" height="15.624999046325684" transform="scale(1,1) translate(0,0.5208338101704904)" xml:space="preserve"><tspan xml:space="preserve" text-rendering="optimizeSpeed" font-size="13.88888888888889" font-weight="normal" font-style="normal" text-decoration="none" fill="#333333" opacity="1" x="0" text-anchor="start" y="12.5" textLength="23.92652702331543" style="font-family: Arial, Helvetica Neue, Helvetica, sans-serif;">true</tspan></text></g></g><g width="0" height="32.333" transform="scale(1,1) translate(716.667,462.5)"><g transform="scale(1,1) translate(0,0)" fill="#000000" stroke="#000000" stroke-opacity="1"><path d="M0,32.333 L0,0" fill="none" stroke-width="1" stroke-dasharray="none"/><g><g stroke-dasharray="none"><path d="M7,18.333L0,32.333L-7,18.333" stroke-width="0.5" fill="none"/></g></g></g></g><g width="0" height="191.667" transform="scale(1,1) translate(483.333,454.167)"><g transform="scale(1,1) translate(0,0)" fill="#000000" stroke="#000000" stroke-opacity="1"><path d="M0,0 L0,191.667" fill="none" stroke-width="1" stroke-dasharray="none"/><g><g stroke-dasharray="none"><path d="M7,177.667L0,191.667L-7,177.667" stroke-width="0.5" fill="none"/></g></g></g></g><g width="41.667" height="22.917" transform="scale(1,1) translate(425,510.417)"><g stroke="#545454" stroke-opacity="1" stroke-width="0" stroke-dasharray="none" width="41.667" height="22.917" transform="scale(1,1) translate(0,0)" fill="none"><rect width="41.667" height="22.917"/></g><g width="41.666666348775266" height="22.916666726271274" transform="scale(1,1) translate(0,0)"><text width="41.666666348775266" height="15.624999046325684" transform="scale(1,1) translate(0,3.645833839972795)" xml:space="preserve"><tspan xml:space="preserve" text-rendering="optimizeSpeed" font-size="13.88888888888889" font-weight="normal" font-style="normal" text-decoration="none" fill="#333333" opacity="1" x="0" text-anchor="start" y="12.5" textLength="25.472370147705078" style="font-family: Arial, Helvetica Neue, Helvetica, sans-serif;">else</tspan></text></g></g><g width="29.333" height="16.667" transform="scale(1,1) translate(502,516.667)"><g stroke="#545454" stroke-opacity="1" stroke-width="0" stroke-dasharray="none" width="29.333" height="16.667" transform="scale(1,1) translate(0,0)" fill="none"><rect width="29.333" height="16.667"/></g><g width="29.333333333333332" height="16.666666666666686" transform="scale(1,1) translate(0,0)"><text width="29.333333333333332" height="15.624999046325684" transform="scale(1,1) translate(0,0.520833810170501)" xml:space="preserve"><tspan xml:space="preserve" text-rendering="optimizeSpeed" font-size="13.88888888888889" font-weight="normal" font-style="normal" text-decoration="none" fill="#333333" opacity="1" x="0" text-anchor="start" y="12.5" textLength="29.330171585083008" style="font-family: Arial, Helvetica Neue, Helvetica, sans-serif;">false</tspan></text></g></g><g width="200" height="100" transform="scale(1,1) translate(383.333,645.833)"><g transform="scale(1,1) translate(0,0)" stroke="#B3D7EE" fill="#0070C0" fill-opacity="1" stroke-opacity="1"><path d="M100,0 L200,50 L100,100 L0,50 L100,0 z" stroke-width="1" stroke-dasharray="none"/></g><g width="99.5" height="49.5" transform="scale(1,1) translate(50.333,25.333)"><text width="99.5" height="15.624999046325684" transform="scale(1,1) translate(0,16.937500476837158)" xml:space="preserve"><tspan xml:space="preserve" text-rendering="optimizeSpeed" font-size="13.88888888888889" font-weight="normal" font-style="normal" text-decoration="none" fill="#333333" opacity="1" x="15.606" text-anchor="start" y="12.5" textLength="68.28789520263672" style="font-family: Arial, Helvetica Neue, Helvetica, sans-serif;">if (disc &gt; 0)</tspan></text></g></g><g width="137.5" height="43.667" transform="scale(1,1) translate(647.917,494.833)"><g stroke="#B3D7EE" stroke-opacity="1" stroke-width="1" stroke-dasharray="none" width="137.5" height="43.667" transform="scale(1,1) translate(0,0)" fill="#FF0000" fill-opacity="1"><rect width="137.5" height="43.667"/></g><g width="132.5" height="38.666666666666664" transform="scale(1,1) translate(2.5,2.5)"><text width="132.5" height="15.624999046325684" transform="scale(1,1) translate(0,11.52083381017049)" xml:space="preserve"><tspan xml:space="preserve" text-rendering="optimizeSpeed" font-size="13.88888888888889" font-weight="normal" font-style="normal" text-decoration="none" fill="#333333" opacity="1" x="7.213" text-anchor="start" y="12.5" textLength="118.07325744628906" style="font-family: Arial, Helvetica Neue, Helvetica, sans-serif;">r1 = r2 = -b / (2 * a)</tspan></text></g></g><g width="0" height="29.25" transform="scale(1,1) translate(716.667,538.5)"><g transform="scale(1,1) translate(0,0)" fill="#000000" stroke="#000000" stroke-opacity="1"><path d="M0,29.25 L0,0" fill="none" stroke-width="1" stroke-dasharray="none"/><g><g stroke-dasharray="none"><path d="M7,15.25L0,29.25L-7,15.25" stroke-width="0.5" fill="none"/></g></g></g></g><g width="166.667" height="37.5" transform="scale(1,1) translate(633.333,567.75)"><g transform="scale(1,1) translate(0,0)" stroke="#B3D7EE" fill="#B3D7EE" fill-opacity="1" stroke-opacity="1"><path d="M20,0 L166.667,0 L146.667,37.5 L0,37.5 L20,0 z" stroke-width="1" stroke-dasharray="none"/></g><g width="122.66666666666666" height="23.833333333333332" transform="scale(1,1) translate(22,6.833)"><text width="122.66666666666666" height="15.624999046325684" transform="scale(1,1) translate(0,4.104167143503824)" xml:space="preserve"><tspan xml:space="preserve" text-rendering="optimizeSpeed" font-size="13.88888888888889" font-weight="normal" font-style="normal" text-decoration="none" fill="#333333" opacity="1" x="23.898" text-anchor="start" y="12.5" textLength="74.87125396728516" style="font-family: Arial, Helvetica Neue, Helvetica, sans-serif;">output r1, r2</tspan></text></g></g><g width="76.667" height="4.167" transform="scale(1,1) translate(583.333,691.667)"><g transform="scale(1,1) translate(0,0)" fill="#000000" stroke="#000000" stroke-opacity="1"><path d="M0,4.167 L76.667,0" fill="none" stroke-width="1" stroke-dasharray="none"/><g><g stroke-dasharray="none"><path d="M62.308,-6.23L76.667,0L63.068,7.749" stroke-width="0.5" fill="none"/></g></g></g></g><g width="150" height="75" transform="scale(1,1) translate(650,654.167)"><g transform="scale(1,1) translate(0,0)" stroke="#B3D7EE" fill="#B3D7EE" fill-opacity="1" stroke-opacity="1"><path d="M20,0 L150,0 L130,75 L0,75 L20,0 z" stroke-width="1" stroke-dasharray="none"/></g><g width="110" height="52.666666666666664" transform="scale(1,1) translate(20,11.167)"><text width="110" height="31.249998092651367" transform="scale(1,1) translate(0,10.708334287007649)" xml:space="preserve"><tspan xml:space="preserve" text-rendering="optimizeSpeed" font-size="13.88888888888889" font-weight="normal" font-style="normal" text-decoration="none" fill="#333333" opacity="1" x="4.055" text-anchor="start" y="12.5" textLength="98.03168487548828" style="font-family: Arial, Helvetica Neue, Helvetica, sans-serif;">Roots are equal</tspan><tspan xml:space="preserve" text-rendering="optimizeSpeed" font-size="13.88888888888889" font-weight="normal" font-style="normal" text-decoration="none" fill="#333333" opacity="1" x="19.88" text-anchor="start" y="28.125" textLength="70.24056243896484" style="font-family: Arial, Helvetica Neue, Helvetica, sans-serif;">and distinct</tspan></text></g></g><g width="200" height="43.667" transform="scale(1,1) translate(616.667,769.833)"><g stroke="#B3D7EE" stroke-opacity="1" stroke-width="1" stroke-dasharray="none" width="200" height="43.667" transform="scale(1,1) translate(0,0)" fill="#FF0000" fill-opacity="1"><rect width="200" height="43.667"/></g><g width="195" height="38.666666666666664" transform="scale(1,1) translate(2.5,2.5)"><text width="195" height="15.624999046325684" transform="scale(1,1) translate(0,11.52083381017049)" xml:space="preserve"><tspan xml:space="preserve" text-rendering="optimizeSpeed" font-size="13.88888888888889" font-weight="normal" font-style="normal" text-decoration="none" fill="#333333" opacity="1" x="11.469" text-anchor="start" y="12.5" textLength="172.0621795654297" style="font-family: Arial, Helvetica Neue, Helvetica, sans-serif;">r1 = (-b + sqrt(disc)) / (2 * a)</tspan></text></g></g><g width="200" height="43.667" transform="scale(1,1) translate(616.667,836.5)"><g stroke="#B3D7EE" stroke-opacity="1" stroke-width="1" stroke-dasharray="none" width="200" height="43.667" transform="scale(1,1) translate(0,0)" fill="#FF0000" fill-opacity="1"><rect width="200" height="43.667"/></g><g width="195" height="38.666666666666664" transform="scale(1,1) translate(2.5,2.5)"><text width="195" height="15.624999046325684" transform="scale(1,1) translate(0,11.52083381017049)" xml:space="preserve"><tspan xml:space="preserve" text-rendering="optimizeSpeed" font-size="13.88888888888889" font-weight="normal" font-style="normal" text-decoration="none" fill="#333333" opacity="1" x="13.211" text-anchor="start" y="12.5" textLength="168.5772705078125" style="font-family: Arial, Helvetica Neue, Helvetica, sans-serif;">r2 = (-b - sqrt(disc)) / (2 * a)</tspan></text></g></g><g width="8.333" height="40.667" transform="scale(1,1) translate(716.667,729.167)"><g transform="scale(1,1) translate(0,0)" fill="#000000" stroke="#000000" stroke-opacity="1"><path d="M0,40.667 L8.333,0" fill="none" stroke-width="1" stroke-dasharray="none"/><g><g stroke-dasharray="none"><path d="M9.668,28.357L0,40.667L-4.047,25.547" stroke-width="0.5" fill="none"/></g></g></g></g><g width="0" height="23" transform="scale(1,1) translate(716.667,813.5)"><g transform="scale(1,1) translate(0,0)" fill="#000000" stroke="#000000" stroke-opacity="1"><path d="M0,0 L0,23" fill="none" stroke-width="1" stroke-dasharray="none"/><g><g stroke-dasharray="none"><path d="M7,9L0,23L-7,9" stroke-width="0.5" fill="none"/></g></g></g></g><g width="166.667" height="37.5" transform="scale(1,1) translate(634.167,922.347)"><g transform="scale(1,1) translate(0,0)" stroke="#B3D7EE" fill="#B3D7EE" fill-opacity="1" stroke-opacity="1"><path d="M20,0 L166.667,0 L146.667,37.5 L0,37.5 L20,0 z" stroke-width="1" stroke-dasharray="none"/></g><g width="122.66666666666666" height="24" transform="scale(1,1) translate(22,6.667)"><text width="122.66666666666666" height="15.624999046325684" transform="scale(1,1) translate(0,4.187500476837158)" xml:space="preserve"><tspan xml:space="preserve" text-rendering="optimizeSpeed" font-size="13.88888888888889" font-weight="normal" font-style="normal" text-decoration="none" fill="#333333" opacity="1" x="23.898" text-anchor="start" y="12.5" textLength="74.87125396728516" style="font-family: Arial, Helvetica Neue, Helvetica, sans-serif;">output r1, r2</tspan></text></g></g><g width="0.833" height="42.181" transform="scale(1,1) translate(716.667,880.167)"><g transform="scale(1,1) translate(0,0)" fill="#000000" stroke="#000000" stroke-opacity="1"><path d="M0,0 L0.833,42.181" fill="none" stroke-width="1" stroke-dasharray="none"/><g><g stroke-dasharray="none"><path d="M7.555,28.046L0.833,42.181L-6.442,28.322" stroke-width="0.5" fill="none"/></g></g></g></g><g width="185" height="0" transform="scale(1,1) translate(790,586.583)"><g transform="scale(1,1) translate(0,0)" fill="#000000" stroke="#000000" stroke-opacity="1"><path d="M 0 0 L 180 0" fill="none" stroke-width="1" stroke-dasharray="none"/><g><g stroke-dasharray="none"><path d="M180,-0.5A5,5 0 1 1 180,0.5z" stroke="none" fill-opacity="1"/></g></g></g></g><g width="184.167" height="0.569" transform="scale(1,1) translate(790.833,941.097)"><g transform="scale(1,1) translate(0,0)" fill="#000000" stroke="#000000" stroke-opacity="1"><path d="M 0 0 L 179.167 0.554" fill="none" stroke-width="1" stroke-dasharray="none"/><g><g stroke-dasharray="none"><path d="M179.169,0.054A5,5 0.177 1 1 179.165,1.054z" stroke="none" fill-opacity="1"/></g></g></g></g><g width="0" height="258.333" transform="scale(1,1) translate(483.333,745.833)"><g transform="scale(1,1) translate(0,0)" fill="#000000" stroke="#000000" stroke-opacity="1"><path d="M0,0 L0,258.333" fill="none" stroke-width="1" stroke-dasharray="none"/><g><g stroke-dasharray="none"><path d="M7,244.333L0,258.333L-7,244.333" stroke-width="0.5" fill="none"/></g></g></g></g><g width="43.333" height="16.667" transform="scale(1,1) translate(603.333,666.667)"><g stroke="#545454" stroke-opacity="1" stroke-width="0" stroke-dasharray="none" width="43.333" height="16.667" transform="scale(1,1) translate(0,0)" fill="none"><rect width="43.333" height="16.667"/></g><g width="43.33333333333333" height="16.666666666666664" transform="scale(1,1) translate(0,0)"><text width="43.33333333333333" height="15.624999046325684" transform="scale(1,1) translate(0,0.5208338101704904)" xml:space="preserve"><tspan xml:space="preserve" text-rendering="optimizeSpeed" font-size="13.88888888888889" font-weight="normal" font-style="normal" text-decoration="none" fill="#333333" opacity="1" x="0" text-anchor="start" y="12.5" textLength="23.92652702331543" style="font-family: Arial, Helvetica Neue, Helvetica, sans-serif;">true</tspan></text></g></g><g width="36.5" height="16.167" transform="scale(1,1) translate(496.833,750.5)"><g stroke="#545454" stroke-opacity="1" stroke-width="0" stroke-dasharray="none" width="36.5" height="16.167" transform="scale(1,1) translate(0,0)" fill="none"><rect width="36.5" height="16.167"/></g><g width="36.49999958276754" height="16.166666666666515" transform="scale(1,1) translate(0,0)"><text width="36.49999958276754" height="15.624999046325684" transform="scale(1,1) translate(0,0.27083381017041575)" xml:space="preserve"><tspan xml:space="preserve" text-rendering="optimizeSpeed" font-size="13.88888888888889" font-weight="normal" font-style="normal" text-decoration="none" fill="#333333" opacity="1" x="0" text-anchor="start" y="12.5" textLength="29.330171585083008" style="font-family: Arial, Helvetica Neue, Helvetica, sans-serif;">false</tspan></text></g></g><g width="33.333" height="20.833" transform="scale(1,1) translate(441.667,747.917)"><g stroke="#545454" stroke-opacity="1" stroke-width="0" stroke-dasharray="none" width="33.333" height="20.833" transform="scale(1,1) translate(0,0)" fill="none"><rect width="33.333" height="20.833"/></g><g width="33.333332697550475" height="20.833333253860587" transform="scale(1,1) translate(0,0)"><text width="33.333332697550475" height="15.624999046325684" transform="scale(1,1) translate(0,2.604167103767452)" xml:space="preserve"><tspan xml:space="preserve" text-rendering="optimizeSpeed" font-size="13.88888888888889" font-weight="normal" font-style="normal" text-decoration="none" fill="#333333" opacity="1" x="0" text-anchor="start" y="12.5" textLength="25.472370147705078" style="font-family: Arial, Helvetica Neue, Helvetica, sans-serif;">else</tspan></text></g></g><g width="150" height="75" transform="scale(1,1) translate(408.333,1004.167)"><g transform="scale(1,1) translate(0,0)" stroke="#B3D7EE" fill="#B3D7EE" fill-opacity="1" stroke-opacity="1"><path d="M20,0 L150,0 L130,75 L0,75 L20,0 z" stroke-width="1" stroke-dasharray="none"/></g><g width="110" height="52.666666666666664" transform="scale(1,1) translate(20,11.167)"><text width="110" height="31.249998092651367" transform="scale(1,1) translate(0,10.708334287007649)" xml:space="preserve"><tspan xml:space="preserve" text-rendering="optimizeSpeed" font-size="13.88888888888889" font-weight="normal" font-style="normal" text-decoration="none" fill="#333333" opacity="1" x="22.971" text-anchor="start" y="12.5" textLength="60.19941329956055" style="font-family: Arial, Helvetica Neue, Helvetica, sans-serif;">Roots are</tspan><tspan xml:space="preserve" text-rendering="optimizeSpeed" font-size="13.88888888888889" font-weight="normal" font-style="normal" text-decoration="none" fill="#333333" opacity="1" x="5.611" text-anchor="start" y="28.125" textLength="98.7774887084961" style="font-family: Arial, Helvetica Neue, Helvetica, sans-serif;">imaginary roots!</tspan></text></g></g><g width="262.5" height="72.833" transform="scale(1,1) translate(352.083,1113.583)"><g stroke="#B3D7EE" stroke-opacity="1" stroke-width="1" stroke-dasharray="none" width="262.5" height="72.833" transform="scale(1,1) translate(0,0)" fill="#FF0000" fill-opacity="1"><rect width="262.5" height="72.833"/></g><g width="257.5" height="67.83333333333333" transform="scale(1,1) translate(2.5,2.5)"><text width="257.5" height="31.249998092651367" transform="scale(1,1) translate(0,18.29166762034098)" xml:space="preserve"><tspan xml:space="preserve" text-rendering="optimizeSpeed" font-size="13.88888888888889" font-weight="normal" font-style="normal" text-decoration="none" fill="#333333" opacity="1" x="48.302" text-anchor="start" y="12.5" textLength="160.89553833007812" style="font-family: Arial, Helvetica Neue, Helvetica, sans-serif;">        realPart = -b / (2 * a);</tspan><tspan xml:space="preserve" text-rendering="optimizeSpeed" font-size="13.88888888888889" font-weight="normal" font-style="normal" text-decoration="none" fill="#333333" opacity="1" x="20.148" text-anchor="start" y="28.125" textLength="217.2032470703125" style="font-family: Arial, Helvetica Neue, Helvetica, sans-serif;">        imagPart = sqrt(-disc) / (2 * a);</tspan></text></g></g><g width="208.333" height="70.667" transform="scale(1,1) translate(379.167,1223)"><g transform="scale(1,1) translate(0,0)" stroke="#B3D7EE" fill="#B3D7EE" fill-opacity="1" stroke-opacity="1"><path d="M20,0 L208.333,0 L188.333,70.667 L0,70.667 L20,0 z" stroke-width="1" stroke-dasharray="none"/></g><g width="154.33333333333331" height="49.33333333333333" transform="scale(1,1) translate(27,10.667)"><text width="154.33333333333331" height="46.87499713897705" transform="scale(1,1) translate(0,1.229168097178139)" xml:space="preserve"><tspan xml:space="preserve" text-rendering="optimizeSpeed" font-size="13.88888888888889" font-weight="normal" font-style="normal" text-decoration="none" fill="#333333" opacity="1" x="56.325" text-anchor="start" y="12.5" textLength="41.68330764770508" style="font-family: Arial, Helvetica Neue, Helvetica, sans-serif;">Output</tspan><tspan xml:space="preserve" text-rendering="optimizeSpeed" font-size="13.88888888888889" font-weight="normal" font-style="normal" text-decoration="none" fill="#333333" opacity="1" x="17.55" text-anchor="start" y="28.125" textLength="119.23265075683594" style="font-family: Arial, Helvetica Neue, Helvetica, sans-serif;">realPart+imagPart i</tspan><tspan xml:space="preserve" text-rendering="optimizeSpeed" font-size="13.88888888888889" font-weight="normal" font-style="normal" text-decoration="none" fill="#333333" opacity="1" x="19.293" text-anchor="start" y="43.75" textLength="115.74773406982422" style="font-family: Arial, Helvetica Neue, Helvetica, sans-serif;">realPart-imagPart i</tspan></text></g></g><g width="150" height="75.167" transform="scale(1,1) translate(408.333,1340.583)"><g transform="scale(1,1) translate(0,0)" stroke="#FBD585" fill="#FBD585" fill-opacity="1" stroke-opacity="1"><path d="M37,0 L28.675,0.949 L25.303,1.897 L22.769,2.846 L20.678,3.795 L18.875,4.744 L17.281,5.692 L15.85,6.641 L14.549,7.59 L13.358,8.538 L12.26,9.487 L11.244,10.436 L10.301,11.385 L9.422,12.333 L8.602,13.282 L7.836,14.231 L7.119,15.179 L6.449,16.128 L5.822,17.077 L5.236,18.026 L4.688,18.974 L4.177,19.923 L3.7,20.872 L3.257,21.821 L2.846,22.769 L2.466,23.718 L2.116,24.667 L1.795,25.615 L1.502,26.564 L1.237,27.513 L0.999,28.462 L0.787,29.41 L0.601,30.359 L0.44,31.308 L0.305,32.256 L0.195,33.205 L0.11,34.154 L0.049,35.103 L0.012,36.051 L0,37 L0,38.167 L0.012,39.115 L0.049,40.064 L0.11,41.013 L0.195,41.962 L0.305,42.91 L0.44,43.859 L0.601,44.808 L0.787,45.756 L0.999,46.705 L1.237,47.654 L1.502,48.603 L1.795,49.551 L2.116,50.5 L2.466,51.449 L2.846,52.397 L3.257,53.346 L3.7,54.295 L4.177,55.244 L4.688,56.192 L5.236,57.141 L5.822,58.09 L6.449,59.038 L7.119,59.987 L7.836,60.936 L8.602,61.885 L9.422,62.833 L10.301,63.782 L11.244,64.731 L12.26,65.679 L13.358,66.628 L14.549,67.577 L15.85,68.526 L17.281,69.474 L18.875,70.423 L20.678,71.372 L22.769,72.321 L25.303,73.269 L28.675,74.218 L37,75.167 L113,75.167 L121.325,74.218 L124.697,73.269 L127.231,72.321 L129.322,71.372 L131.125,70.423 L132.719,69.474 L134.15,68.526 L135.451,67.577 L136.642,66.628 L137.74,65.679 L138.756,64.731 L139.699,63.782 L140.578,62.833 L141.398,61.885 L142.164,60.936 L142.881,59.987 L143.551,59.038 L144.178,58.09 L144.764,57.141 L145.312,56.192 L145.823,55.244 L146.3,54.295 L146.743,53.346 L147.154,52.397 L147.534,51.449 L147.884,50.5 L148.205,49.551 L148.498,48.603 L148.763,47.654 L149.001,46.705 L149.213,45.756 L149.399,44.808 L149.56,43.859 L149.695,42.91 L149.805,41.962 L149.89,41.013 L149.951,40.064 L149.988,39.115 L150,38.167 L150,37 L149.988,36.051 L149.951,35.103 L149.89,34.154 L149.805,33.205 L149.695,32.256 L149.56,31.308 L149.399,30.359 L149.213,29.41 L149.001,28.462 L148.763,27.513 L148.498,26.564 L148.205,25.615 L147.884,24.667 L147.534,23.718 L147.154,22.769 L146.743,21.821 L146.3,20.872 L145.823,19.923 L145.312,18.974 L144.764,18.026 L144.178,17.077 L143.551,16.128 L142.881,15.179 L142.164,14.231 L141.398,13.282 L140.578,12.333 L139.699,11.385 L138.756,10.436 L137.74,9.487 L136.642,8.538 L135.451,7.59 L134.15,6.641 L132.719,5.692 L131.125,4.744 L129.322,3.795 L127.231,2.846 L124.697,1.897 L121.325,0.949 L113,0 L37,0 z" stroke-width="1" stroke-dasharray="none"/></g><g width="101.33333333333333" height="48.33333333333333" transform="scale(1,1) translate(24.333,13.333)"><text width="101.33333333333333" height="15.624999046325684" transform="scale(1,1) translate(0,16.354167143503823)" xml:space="preserve"><tspan xml:space="preserve" text-rendering="optimizeSpeed" font-size="13.88888888888889" font-weight="normal" font-style="normal" text-decoration="none" fill="#333333" opacity="1" x="36.385" text-anchor="start" y="12.5" textLength="28.56403923034668" style="font-family: Arial, Helvetica Neue, Helvetica, sans-serif;">Stop</tspan></text></g><g fill="#9999FF" stroke="#9999FF" stroke-opacity="1" opacity="0" transform="scale(1,1) translate(0,0)"><path fill="none" stroke-width="1" stroke-dasharray="none" d="M0,0"/></g></g><g width="416.667" height="0" transform="scale(1,1) translate(558.333,1366.667)"><g transform="scale(1,1) translate(0,0)" fill="#000000" stroke="#000000" stroke-opacity="1"><path d="M0,0 L416.667,0" fill="none" stroke-width="1" stroke-dasharray="none"/><g><g stroke-dasharray="none"><path d="M14,7L0,0L14,-7" stroke-width="0.5" fill="none"/></g></g></g></g><g width="0" height="780.083" transform="scale(1,1) translate(975,586.583)"><g transform="scale(1,1) translate(0,0)" fill="#000000" stroke="#000000" stroke-opacity="1"><path d="M 0 0 L 0 775.083" fill="none" stroke-width="1" stroke-dasharray="none"/><g><g stroke-dasharray="none"><path d="M0.5,775.083A5,5 90 1 1 -0.5,775.083z" stroke="none" fill-opacity="1"/></g></g></g></g><g width="0" height="34.417" transform="scale(1,1) translate(483.333,1079.167)"><g transform="scale(1,1) translate(0,0)" fill="#000000" stroke="#000000" stroke-opacity="1"><path d="M0,0 L0,34.417" fill="none" stroke-width="1" stroke-dasharray="none"/><g><g stroke-dasharray="none"><path d="M7,20.417L0,34.417L-7,20.417" stroke-width="0.5" fill="none"/></g></g></g></g><g width="0" height="36.583" transform="scale(1,1) translate(483.333,1186.417)"><g transform="scale(1,1) translate(0,0)" fill="#000000" stroke="#000000" stroke-opacity="1"><path d="M0,36.583 L0,0" fill="none" stroke-width="1" stroke-dasharray="none"/><g><g stroke-dasharray="none"><path d="M7,22.583L0,36.583L-7,22.583" stroke-width="0.5" fill="none"/></g></g></g></g><g width="0" height="46.917" transform="scale(1,1) translate(483.333,1293.667)"><g transform="scale(1,1) translate(0,0)" fill="#000000" stroke="#000000" stroke-opacity="1"><path d="M0,0 L0,46.917" fill="none" stroke-width="1" stroke-dasharray="none"/><g><g stroke-dasharray="none"><path d="M7,32.917L0,46.917L-7,32.917" stroke-width="0.5" fill="none"/></g></g></g></g><g width="0.5" height="43.583" transform="scale(1,1) translate(491.167,87.667)"><g transform="scale(1,1) translate(0,0)" fill="#000000" stroke="#000000" stroke-opacity="1"><path d="M0,0 L0.5,43.583" fill="none" stroke-width="1" stroke-dasharray="none"/><g><g stroke-dasharray="none"><path d="M7.339,29.504L0.5,43.583L-6.66,29.664" stroke-width="0.5" fill="none"/></g></g></g></g><g width="181.805" height="74.375" transform="scale(1,1) translate(400.764,212.813)"><g transform="scale(1,1) translate(0,0)" stroke="#B3D7EE" fill="#0070C0" fill-opacity="1" stroke-opacity="1"><path d="M90.903,0 L181.805,37.187 L90.903,74.375 L0,37.187 L90.903,0 z" stroke-width="1" stroke-dasharray="none"/></g><g width="90.40255848161131" height="36.68741019479235" transform="scale(1,1) translate(45.701,18.844)"><text width="90.40255848161131" height="31.249998092651367" transform="scale(1,1) translate(0,2.718706051070491)" xml:space="preserve"><tspan xml:space="preserve" text-rendering="optimizeSpeed" font-size="13.88888888888889" font-weight="normal" font-style="normal" text-decoration="none" fill="#333333" opacity="1" x="0" text-anchor="start" y="12.5" textLength="89.81431579589844" style="font-family: Arial, Helvetica Neue, Helvetica, sans-serif;">if (a ==0 || b==</tspan><tspan xml:space="preserve" text-rendering="optimizeSpeed" font-size="13.88888888888889" font-weight="normal" font-style="normal" text-decoration="none" fill="#333333" opacity="1" x="14.193" text-anchor="start" y="28.125" textLength="62.01643371582031" style="font-family: Arial, Helvetica Neue, Helvetica, sans-serif;">0 || c== 0)</tspan></text></g><g fill="#9999FF" stroke="#9999FF" stroke-opacity="1" opacity="0" transform="scale(1,1) translate(0,0)"><path fill="none" stroke-width="1" stroke-dasharray="none" d="M0,0"/></g></g><g width="0" height="27.396" transform="scale(1,1) translate(491.667,185.417)"><g transform="scale(1,1) translate(0,0)" fill="#000000" stroke="#000000" stroke-opacity="1"><path d="M0,0 L0,27.396" fill="none" stroke-width="1" stroke-dasharray="none"/><g><g stroke-dasharray="none"><path d="M7,13.396L0,27.396L-7,13.396" stroke-width="0.5" fill="none"/></g></g></g></g><g width="8.333" height="19.146" transform="scale(1,1) translate(483.333,287.187)"><g transform="scale(1,1) translate(0,0)" fill="#000000" stroke="#000000" stroke-opacity="1"><path d="M8.333,0 L0,19.146" fill="none" stroke-width="1" stroke-dasharray="none"/><g><g stroke-dasharray="none"><path d="M12.005,9.103L0,19.146L-0.831,3.516" stroke-width="0.5" fill="none"/></g></g></g></g><g width="29.33" height="15.625" transform="scale(1,1) translate(502.002,283.854)"><g stroke="#545454" stroke-opacity="1" stroke-width="0" stroke-dasharray="none" width="29.33" height="15.625" transform="scale(1,1) translate(0,0)" fill="none"><rect width="29.33" height="15.625"/></g><g width="29.330171585083008" height="15.624999046325684" transform="scale(1,1) translate(0,0)"><text width="29.330171585083008" height="15.624999046325684" transform="scale(1,1) translate(0,0)" xml:space="preserve"><tspan xml:space="preserve" text-rendering="optimizeSpeed" font-size="13.88888888888889" font-weight="normal" font-style="normal" text-decoration="none" fill="#333333" opacity="1" x="0" text-anchor="start" y="12.5" textLength="29.330171585083008" style="font-family: Arial, Helvetica Neue, Helvetica, sans-serif;">false</tspan></text></g></g><g width="484.097" height="0" transform="scale(1,1) translate(582.569,250)"><g transform="scale(1,1) translate(0,0)" fill="#000000" stroke="#000000" stroke-opacity="1"><path d="M 0 0 L 479.097 0" fill="none" stroke-width="1" stroke-dasharray="none"/><g><g stroke-dasharray="none"><path d="M479.097,-0.5A5,5 0 1 1 479.097,0.5z" stroke="none" fill-opacity="1"/></g></g></g></g><g width="0" height="1141.667" transform="scale(1,1) translate(1066.667,250)"><g transform="scale(1,1) translate(0,0)" fill="#000000" stroke="#000000" stroke-opacity="1"><path d="M 0 0 L 0 1136.667" fill="none" stroke-width="1" stroke-dasharray="none"/><g><g stroke-dasharray="none"><path d="M0.5,1136.667A5,5 90 1 1 -0.5,1136.667z" stroke="none" fill-opacity="1"/></g></g></g></g><g width="509.333" height="0" transform="scale(1,1) translate(558.333,1391.667)"><g transform="scale(1,1) translate(0,0)" fill="#000000" stroke="#000000" stroke-opacity="1"><path d="M509.333,0 L0,0" fill="none" stroke-width="1" stroke-dasharray="none"/><g><g stroke-dasharray="none"><path d="M14,7L0,0L14,-7" stroke-width="0.5" fill="none"/></g></g></g></g><g width="23.927" height="15.625" transform="scale(1,1) translate(615.625,214.063)"><g stroke="#545454" stroke-opacity="1" stroke-width="0" stroke-dasharray="none" width="23.927" height="15.625" transform="scale(1,1) translate(0,0)" fill="none"><rect width="23.927" height="15.625"/></g><g width="23.92652702331543" height="15.624999046325684" transform="scale(1,1) translate(0,0)"><text width="23.92652702331543" height="15.624999046325684" transform="scale(1,1) translate(0,0)" xml:space="preserve" style="user-select: none; -webkit-user-drag: none; -webkit-tap-highlight-color: rgba(0, 0, 0, 0);"><tspan xml:space="preserve" text-rendering="optimizeSpeed" font-size="13.88888888888889" font-weight="normal" font-style="normal" text-decoration="none" fill="#333333" opacity="1" x="0" text-anchor="start" y="12.5" textLength="23.92652702331543" style="font-family: Arial, Helvetica Neue, Helvetica, sans-serif;">true</tspan></text></g></g></g></svg>